:FULLY-SPECIFIED
:FORCE-ALL-JOINTS-BE-3DOF
:DEGREES
1631
root -15.0228 14.5932 19.3955 699.825 -71.4165 380.433
lfemur 13.4237 -11.0348 -13.4574
ltibia 26.186 0 0
lfoot -20.4366 28.1201 0
ltoes -43.7398 0 0
rfemur -53.0595 -14.2785 7.26348
rtibia 66.0139 0 0
rfoot -9.34691 10.3184 0
rtoes 3.00758 0 0
lowerback 12.9749 4.35581 -7.80434
upperback -0.259521 4.49635 -0.7815
thorax -8.12291 2.46025 2.64434
lowerneck 1.24256 -12.4128 -12.9593
upperneck 3.77715 -17.0693 10.0112
head 2.88723 -8.56822 4.38338
lclavicle 7.95387e-14 -1.31198e-14 0
lhumerus -71.7985 -16.9468 103.96
lradius 104.187 0 0
lwrist 55.6181 0 0
lhand -10.7626 50.7011 0
lfingers 7.12502 0 0
lthumb 15.2491 80.1191 0
rclavicle 7.95387e-14 -1.31198e-14 0
rhumerus 46.8141 -3.70446 -55.3508
rradius 19.4479 0 0
rwrist 22.7942 0 0
rhand -18.6244 -35.9638 0
rfingers 7.12502 0 0
rthumb 7.66766 -65.8048 0
1632
root -15.0357 14.5937 19.4003 700.229 -71.4713 380.015
lfemur 13.4468 -11.0421 -13.4593
ltibia 26.4494 0 0
lfoot -20.4541 28.1412 0
ltoes -43.716 0 0
rfemur -53.1144 -14.2712 7.35818
rtibia 66.0559 0 0
rfoot -9.4141 10.3582 0
rtoes 2.93907 0 0
lowerback 12.947 4.35756 -7.67367
upperback -0.267123 4.52505 -0.747422
thorax -8.11039 2.47018 2.60355
lowerneck 1.34969 -12.4207 -13.4406
upperneck 3.76361 -17.1379 10.6832
head 2.97473 -8.60319 4.64446
lclavicle -1.29955e-14 -3.57812e-15 0
lhumerus -71.8256 -17.0964 103.919
lradius 104.186 0 0
lwrist 55.4866 0 0
lhand -11.3706 50.4313 0
lfingers 7.12502 0 0
lthumb 14.6635 79.8928 0
rclavicle -1.29955e-14 -3.57812e-15 0
rhumerus 46.7673 -3.76483 -55.4856
rradius 19.4177 0 0
rwrist 22.8564 0 0
rhand -18.5828 -35.499 0
rfingers 7.12502 0 0
rthumb 7.70781 -65.3386 0
1633
root -15.0474 14.592 19.4064 700.371 -71.511 379.855
lfemur 13.3763 -11.051 -13.4485
ltibia 26.8651 0 0
lfoot -20.4822 28.1749 0
ltoes -43.695 0 0
rfemur -53.173 -14.2633 7.45901
rtibia 66.096 0 0
rfoot -9.48435 10.3999 0
rtoes 2.87322 0 0
lowerback 12.9396 4.34047 -7.66466
upperback -0.289148 4.50864 -0.697327
thorax -8.13177 2.46472 2.65511
lowerneck 1.27267 -12.5014 -13.1504
upperneck 3.84271 -17.2205 10.3426
head 2.96526 -8.64256 4.49177
lclavicle -4.39066e-14 2.50469e-14 0
lhumerus -71.8651 -17.0028 103.967
lradius 104.122 0 0
lwrist 55.159 0 0
lhand -11.9955 50.0823 0
lfingers 7.12502 0 0
lthumb 14.0613 79.5866 0
rclavicle -4.39066e-14 2.50469e-14 0
rhumerus 46.7003 -3.59207 -55.3785
rradius 19.4672 0 0
rwrist 22.6068 0 0
rhand -18.5593 -34.4664 0
rfingers 7.12502 0 0
rthumb 7.73055 -64.3051 0
1634
root -15.0506 14.5889 19.4039 700.671 -71.4081 379.645
lfemur 13.1736 -11.0766 -13.4175
ltibia 27.4141 0 0
lfoot -20.5198 28.2201 0
ltoes -43.6772 0 0
rfemur -53.2342 -14.2552 7.56444
rtibia 66.1332 0 0
rfoot -9.55664 10.4427 0
rtoes 2.81113 0 0
lowerback 12.9721 4.29215 -7.71634
upperback -0.357169 4.43358 -0.67343
thorax -8.22223 2.43553 2.72051
lowerneck 1.21641 -12.6387 -12.6357
upperneck 3.7891 -17.3639 9.86461
head 2.88745 -8.71141 4.27119
lclavicle 7.55879e-14 -4.77083e-15 0
lhumerus -71.8693 -17.026 103.911
lradius 104.108 0 0
lwrist 54.8021 0 0
lhand -12.518 49.6291 0
lfingers 7.12502 0 0
lthumb 13.5578 79.1677 0
rclavicle 7.55879e-14 -4.77083e-15 0
rhumerus 46.6513 -3.45999 -55.2903
rradius 19.4745 0 0
rwrist 22.3162 0 0
rhand -18.3478 -35.3204 0
rfingers 7.12502 0 0
rthumb 7.93464 -65.1515 0
1635
root -15.0394 14.5819 19.3733 701.836 -71.0269 378.867
lfemur 12.8518 -11.1173 -13.3683
ltibia 28.0774 0 0
lfoot -20.5661 28.2756 0
ltoes -43.6627 0 0
rfemur -53.2971 -14.2468 7.67292
rtibia 66.167 0 0
rfoot -9.62995 10.4862 0
rtoes 2.75384 0 0
lowerback 13.0134 4.14849 -7.99811
upperback -0.573185 4.19939 -0.553875
thorax -8.4871 2.35171 3.04455
lowerneck 1.07494 -12.7199 -12.4319
upperneck 3.89707 -17.4492 9.62543
head 2.91267 -8.75042 4.15473
lclavicle 1.74682e-14 2.14687e-14 0
lhumerus -71.8944 -17.0658 103.92
lradius 104.096 0 0
lwrist 54.5318 0 0
lhand -13.1074 49.2348 0
lfingers 7.12502 0 0
lthumb 12.9896 78.8105 0
rclavicle 1.74682e-14 2.14687e-14 0
rhumerus 46.6907 -3.44075 -55.3702
rradius 19.4016 0 0
rwrist 22.2598 0 0
rhand -18.4092 -34.8177 0
rfingers 7.12502 0 0
rthumb 7.87545 -64.651 0
1636
root -15.0486 14.5795 19.3803 702.032 -71.0473 378.534
lfemur 12.4244 -11.1713 -13.303
ltibia 28.8358 0 0
lfoot -20.62 28.3404 0
ltoes -43.652 0 0
rfemur -53.361 -14.2382 7.78294
rtibia 66.1963 0 0
rfoot -9.70326 10.5297 0
rtoes 2.70243 0 0
lowerback 13.1066 4.12539 -7.94549
upperback -0.545503 4.17422 -0.494175
thorax -8.50727 2.33857 3.08072
lowerneck 1.1114 -12.7678 -12.5938
upperneck 3.81195 -17.5315 9.91543
head 2.93074 -8.7902 4.2578
lclavicle 1.27843e-13 7.15625e-15 0
lhumerus -71.9536 -17.0911 104.012
lradius 104.128 0 0
lwrist 54.4034 0 0
lhand -13.8773 48.841 0
lfingers 7.12502 0 0
lthumb 12.2474 78.4624 0
rclavicle 1.27843e-13 7.15625e-15 0
rhumerus 46.7582 -3.52206 -55.5501
rradius 19.2836 0 0
rwrist 22.325 0 0
rhand -18.112 -34.7293 0
rfingers 7.12502 0 0
rthumb 8.16222 -64.5517 0
1637
root -15.0756 14.5811 19.4191 701.765 -71.4537 378.489
lfemur 11.9043 -11.237 -13.2234
ltibia 29.6704 0 0
lfoot -20.6806 28.4132 0
ltoes -43.6454 0 0
rfemur -53.4249 -14.2297 7.89297
rtibia 66.2205 0 0
rfoot -9.77555 10.5725 0
rtoes 2.65798 0 0
lowerback 12.9497 4.169 -7.59602
upperback -0.379569 4.3092 -0.47605
thorax -8.22592 2.37784 2.89263
lowerneck 1.27395 -12.756 -12.8669
upperneck 3.59352 -17.5464 10.3317
head 2.90269 -8.80007 4.43121
lclavicle -3.06874e-14 7.95139e-16 0
lhumerus -71.9671 -17.0386 104.063
lradius 104.139 0 0
lwrist 54.3205 0 0
lhand -14.6835 48.4404 0
lfingers 7.12502 0 0
lthumb 11.47 78.1066 0
rclavicle -3.06874e-14 7.95139e-16 0
rhumerus 46.9408 -3.74688 -56.0508
rradius 19.0559 0 0
rwrist 22.8107 0 0
rhand -18.0667 -35.0301 0
rfingers 7.12502 0 0
rthumb 8.20598 -64.8508 0
1638
root -15.0814 14.5808 19.4252 702.334 -71.4891 377.899
lfemur 11.305 -11.3127 -13.1318
ltibia 30.5621 0 0
lfoot -20.7469 28.4929 0
ltoes -43.6431 0 0
rfemur -53.4878 -14.2213 8.00145
rtibia 66.2388 0 0
rfoot -9.8458 10.6142 0
rtoes 2.62154 0 0
lowerback 12.9438 4.16649 -7.45686
upperback -0.393185 4.33496 -0.401805
thorax -8.23499 2.38768 2.88887
lowerneck 1.32777 -12.8681 -13.008
upperneck 3.53575 -17.7115 10.5039
head 2.92392 -8.88282 4.49077
lclavicle 4.83544e-14 1.23246e-14 0
lhumerus -72.026 -17.179 104.203
lradius 104.135 0 0
lwrist 54.2085 0 0
lhand -15.4761 48.1451 0
lfingers 7.12502 0 0
lthumb 10.7055 77.8523 0
rclavicle 4.83544e-14 1.23246e-14 0
rhumerus 46.9859 -4.06296 -56.3719
rradius 18.8886 0 0
rwrist 23.1905 0 0
rhand -18.0429 -35.0179 0
rfingers 7.12502 0 0
rthumb 8.22897 -64.8377 0
1639
root -15.0868 14.5763 19.4314 702.606 -71.5483 377.63
lfemur 10.6395 -11.3968 -13.03
ltibia 31.492 0 0
lfoot -20.8181 28.5783 0
ltoes -43.6231 0 0
rfemur -53.549 -14.2132 8.10688
rtibia 66.2504 0 0
rfoot -9.91299 10.654 0
rtoes 2.59418 0 0
lowerback 12.9107 4.14147 -7.47073
upperback -0.399566 4.30773 -0.345624
thorax -8.22569 2.37695 2.96438
lowerneck 1.31412 -13.0026 -12.5599
upperneck 3.3922 -17.8507 10.0578
head 2.81815 -8.95117 4.29621
lclavicle 8.51295e-14 -2.26615e-14 0
lhumerus -72.075 -17.2288 104.333
lradius 104.184 0 0
lwrist 54.7366 0 0
lhand -16.6163 47.9989 0
lfingers 7.12502 0 0
lthumb 9.60554 77.7599 0
rclavicle 8.51295e-14 -2.26615e-14 0
rhumerus 46.9132 -3.82012 -56.0554
rradius 19.0208 0 0
rwrist 22.798 0 0
rhand -17.8474 -35.077 0
rfingers 7.12502 0 0
rthumb 8.41762 -64.8893 0
1640
root -15.0685 14.5687 19.4036 703.802 -71.1856 376.897
lfemur 9.92115 -11.4876 -12.9202
ltibia 32.4408 0 0
lfoot -20.893 28.6684 0
ltoes -43.5654 0 0
rfemur -53.6076 -14.2053 8.20771
rtibia 66.2544 0 0
rfoot -9.97609 10.6915 0
rtoes 2.57699 0 0
lowerback 12.8956 3.9999 -7.73539
upperback -0.638067 4.08229 -0.253127
thorax -8.47912 2.29647 3.25134
lowerneck 1.45021 -13.0448 -12.7999
upperneck 3.25104 -17.9361 10.4045
head 2.81735 -8.99614 4.4342
lclavicle 2.66868e-14 -2.54444e-14 0
lhumerus -72.1272 -17.2747 104.426
lradius 104.164 0 0
lwrist 54.965 0 0
lhand -17.6172 48.0063 0
lfingers 7.12502 0 0
lthumb 8.63977 77.8095 0
rclavicle 2.66868e-14 -2.54444e-14 0
rhumerus 46.9683 -3.99663 -56.3339
rradius 18.9388 0 0
rwrist 23.0003 0 0
rhand -17.7797 -35.1135 0
rfingers 7.12502 0 0
rthumb 8.48297 -64.9231 0
1641
root -15.069 14.564 19.4133 704.149 -71.2184 376.606
lfemur 9.16314 -11.5833 -12.8043
ltibia 33.3896 0 0
lfoot -20.9709 28.7619 0
ltoes -43.4735 0 0
rfemur -53.6625 -14.198 8.30241
rtibia 66.2248 0 0
rfoot -10.0341 10.7259 0
rtoes 2.57102 0 0
lowerback 12.8441 3.98106 -7.66079
upperback -0.665505 4.07509 -0.233699
thorax -8.4745 2.29144 3.234
lowerneck 1.47926 -13.1175 -12.8438
upperneck 3.15927 -18.0424 10.5794
head 2.81786 -9.0483 4.48605
lclavicle 3.23522e-14 -3.57812e-15 0
lhumerus -72.1721 -17.3756 104.534
lradius 104.133 0 0
lwrist 55.108 0 0
lhand -18.3923 47.806 0
lfingers 7.12502 0 0
lthumb 7.89172 77.6387 0
rclavicle 3.23522e-14 -3.57812e-15 0
rhumerus 46.9563 -4.19189 -56.5199
rradius 18.9341 0 0
rwrist 23.0872 0 0
rhand -17.7109 -34.8587 0
rfingers 7.12502 0 0
rthumb 8.54937 -64.6656 0
1642
root -15.0673 14.5591 19.4228 704.507 -71.2905 376.3
lfemur 8.37868 -11.6825 -12.6843
ltibia 34.3195 0 0
lfoot -21.0506 28.8577 0
ltoes -43.3507 0 0
rfemur -53.7131 -14.1913 8.38946
rtibia 66.1387 0 0
rfoot -10.086 10.7566 0
rtoes 2.52983 0 0
lowerback 12.805 3.95078 -7.62221
upperback -0.702901 4.04856 -0.181756
thorax -8.49081 2.28048 3.27479
lowerneck 1.54862 -13.1678 -12.9237
upperneck 3.08255 -18.1209 10.7007
head 2.81152 -9.08885 4.53207
lclavicle 3.06625e-14 -2.38542e-15 0
lhumerus -72.1754 -17.3521 104.556
lradius 104.07 0 0
lwrist 55.0911 0 0
lhand -18.2625 48.0062 0
lfingers 7.12502 0 0
lthumb 8.01697 77.8342 0
rclavicle 3.06625e-14 -2.38542e-15 0
rhumerus 46.9728 -4.23388 -56.6145
rradius 18.9185 0 0
rwrist 22.9501 0 0
rhand -17.5955 -34.5789 0
rfingers 7.12502 0 0
rthumb 8.66073 -64.3812 0
1643
root -15.0632 14.554 19.4323 704.92 -71.3613 375.956
lfemur 7.581 -11.7833 -12.5624
ltibia 35.2112 0 0
lfoot -21.1313 28.9546 0
ltoes -43.2005 0 0
rfemur -53.7583 -14.1852 8.46732
rtibia 66.0004 0 0
rfoot -10.1307 10.7832 0
rtoes 2.41014 0 0
lowerback 12.7432 3.93579 -7.53681
upperback -0.7226 4.04923 -0.161465
thorax -8.47202 2.27817 3.25146
lowerneck 1.50207 -13.2617 -12.9272
upperneck 3.07545 -18.2456 10.7603
head 2.83734 -9.14856 4.53529
lclavicle 6.57232e-14 -2.18663e-14 0
lhumerus -72.091 -17.3624 104.485
lradius 103.947 0 0
lwrist 54.7521 0 0
lhand -18.1291 48.3071 0
lfingers 7.12502 0 0
lthumb 8.14575 78.1301 0
rclavicle 6.57232e-14 -2.18663e-14 0
rhumerus 46.9846 -4.3456 -56.7296
rradius 18.8915 0 0
rwrist 22.6131 0 0
rhand -17.7762 -33.3488 0
rfingers 7.12502 0 0
rthumb 8.48629 -63.1583 0
1644
root -15.0549 14.5472 19.4433 705.436 -71.414 375.51
lfemur 6.78332 -11.884 -12.4404
ltibia 36.0458 0 0
lfoot -21.212 29.0515 0
ltoes -43.0264 0 0
rfemur -53.7972 -14.18 8.53445
rtibia 65.814 0 0
rfoot -10.1673 10.8048 0
rtoes 2.21777 0 0
lowerback 12.726 3.88501 -7.43725
upperback -0.761367 4.0013 -0.125085
thorax -8.49377 2.25381 3.24489
lowerneck 1.58785 -13.2909 -13.1302
upperneck 2.95632 -18.3088 11.094
head 2.84585 -9.1814 4.66191
lclavicle -4.25151e-14 -1.03368e-14 0
lhumerus -72.0748 -17.3335 104.514
lradius 103.849 0 0
lwrist 54.7879 0 0
lhand -16.4831 48.2549 0
lfingers 7.12502 0 0
lthumb 9.73405 78.01 0
rclavicle -4.25151e-14 -1.03368e-14 0
rhumerus 46.9891 -4.1999 -56.6868
rradius 18.9196 0 0
rwrist 21.8494 0 0
rhand -18.2324 -34.3882 0
rfingers 7.12502 0 0
rthumb 8.04602 -64.215 0
